<?xml version="1.0" encoding="UTF-8"?>
<svg id="Layer_1" data-name="Layer 1" xmlns="http://www.w3.org/2000/svg" viewBox="0 0 154.15 53.23">
  <defs>
    <style>
      .cls-1 {
        fill: #47a046;
      }

      .cls-2 {
        fill: #46a046;
        stroke: #46a046;
      }

      .cls-2, .cls-3, .cls-4 {
        stroke-miterlimit: 10;
      }

      .cls-5, .cls-4 {
        fill: #232333;
      }

      .cls-3 {
        fill: #45a047;
        stroke: #45a047;
      }

      .cls-4 {
        stroke: #232333;
      }
    </style>
  </defs>
  <path class="cls-2" d="M33.5.56C18.34.56,5.17,10.29.73,24.77l-.06.18h1.35C6.35,11.12,18.97,1.84,33.5,1.84s27.37,9.81,31.52,23.28h1.34C62.16,10.94,49.02.56,33.5.56Z"/>
  <g>
    <rect class="cls-1" x="4.34" y="23.14" width="2" height="1.56"/>
    <rect class="cls-1" x="7.47" y="19.64" width="2" height="5.05"/>
    <rect class="cls-1" x="10.59" y="16.46" width="2" height="8.23"/>
    <rect class="cls-1" x="13.71" y="18.75" width="2" height="5.94"/>
    <rect class="cls-1" x="16.84" y="13.35" width="2" height="11.34"/>
    <rect class="cls-1" x="19.96" y="22.17" width="2" height="2.53"/>
    <rect class="cls-1" x="23.09" y="17.52" width="2" height="7.17"/>
    <rect class="cls-1" x="26.21" y="19.64" width="2" height="5.05"/>
    <rect class="cls-1" x="29.34" y="16.46" width="2" height="8.23"/>
    <rect class="cls-1" x="32.46" y="21.58" width="2" height="3.11"/>
    <rect class="cls-1" x="35.59" y="19.44" width="2" height="5.25"/>
    <rect class="cls-1" x="38.71" y="22.07" width="2" height="2.63"/>
    <rect class="cls-1" x="41.83" y="19.64" width="2" height="5.05"/>
    <rect class="cls-1" x="44.96" y="12.34" width="2" height="12.36"/>
    <rect class="cls-1" x="48.08" y="18.75" width="2" height="5.94"/>
    <rect class="cls-1" x="51.21" y="14.26" width="2" height="10.43"/>
    <rect class="cls-1" x="54.33" y="17.52" width="2" height="7.17"/>
    <rect class="cls-1" x="57.46" y="20.21" width="2" height="4.48"/>
    <rect class="cls-1" x="60.58" y="22.69" width="2" height="2"/>
  </g>
  <g>
    <path class="cls-4" d="M75.41,25.12l-6.38-17.29h1.48l3.32,9.02c.95,2.61,2.02,5.48,2.39,6.95h.05c.37-1.29,1.54-4.31,2.49-6.85l3.45-9.11h1.45l-6.62,17.29h-1.63Z"/>
    <path class="cls-4" d="M88.56,7.84v17.29h-1.38V7.84h1.38Z"/>
    <path class="cls-4" d="M95.83,19.19l-2.17,5.93h-1.4l6.3-17.29h1.64l6.57,17.29h-1.5l-2.22-5.93h-7.22ZM102.61,17.91c-1.9-5.1-2.88-7.57-3.22-8.74h-.02c-.42,1.32-1.52,4.37-3.05,8.74h6.3Z"/>
    <path class="cls-4" d="M110.42,7.84h6.02c3.31,0,5.07,1.76,5.07,4.25,0,2.05-1.22,3.38-2.64,3.78,1.23.35,3.25,1.56,3.25,4.27,0,3.45-2.57,4.99-5.58,4.99h-6.13V7.84ZM116,15.26c2.95,0,4.07-1.1,4.07-3.09,0-1.69-1.17-3.06-3.56-3.06h-4.74v6.15h4.23ZM111.77,23.85h4.81c2.25,0,4.12-1.13,4.12-3.65,0-2.18-1.39-3.67-4.82-3.67h-4.11v7.33Z"/>
    <path class="cls-3" d="M128.36,19.19l-2.17,5.93h-1.4l6.3-17.29h1.64l6.57,17.29h-1.5l-2.22-5.93h-7.22ZM135.13,17.91c-1.9-5.1-2.88-7.57-3.22-8.74h-.02c-.42,1.32-1.52,4.37-3.05,8.74h6.3Z"/>
    <path class="cls-3" d="M142.94,7.84h1.38v16.01h9.22l-.25,1.27h-10.35V7.84Z"/>
  </g>
  <g>
    <path class="cls-5" d="M15.68,41.11l-2.59-6.99h.6l1.35,3.65c.39,1.06.82,2.22.97,2.81h.02c.15-.52.62-1.74,1.01-2.77l1.4-3.69h.59l-2.69,6.99h-.66Z"/>
    <path class="cls-5" d="M19.88,33.75h.52v.98h-.52v-.98ZM19.88,36.11h.52v5h-.52v-5Z"/>
    <path class="cls-5" d="M22.03,37.47c0-.83,0-1.19-.01-1.36h.51c.01.16.02.48.02,1.11.29-.75.93-1.2,1.74-1.23v.56c-1.04.07-1.74.78-1.74,1.97v2.59h-.52v-3.64Z"/>
    <path class="cls-5" d="M24.86,36.11h.93v-1.56h.52v1.56h1.19v.48h-1.19v3.23c0,.56.12.87.6.87.15,0,.36,0,.52-.06v.45c-.17.07-.42.09-.63.09-.65,0-1.01-.32-1.01-1.13v-3.46h-.93v-.48Z"/>
    <path class="cls-5" d="M32.13,39.65c0,.49,0,1.26.01,1.46h-.5c-.02-.13-.03-.46-.03-.86-.21.59-.72.98-1.6.98-.73,0-1.64-.29-1.64-1.81v-3.31h.51v3.19c0,.73.23,1.43,1.21,1.43,1.11,0,1.53-.62,1.53-2.04v-2.57h.52v3.54Z"/>
    <path class="cls-5" d="M37.21,40.15c0,.44.04.8.07.96h-.5c-.04-.12-.07-.34-.09-.76-.17.37-.61.88-1.64.88-1.16,0-1.66-.75-1.66-1.5,0-1.1.85-1.6,2.35-1.6h.94v-.51c0-.5-.15-1.16-1.28-1.16-1,0-1.15.52-1.26.93h-.52c.06-.56.41-1.4,1.79-1.4,1.15,0,1.79.48,1.79,1.58v2.58ZM36.7,38.57h-.97c-1.1,0-1.79.29-1.79,1.14,0,.62.44,1.05,1.14,1.05,1.42,0,1.62-.94,1.62-2.01v-.18Z"/>
    <path class="cls-5" d="M38.85,41.11v-7.36h.52v7.36h-.52Z"/>
    <path class="cls-5" d="M40.2,42.25c.49-.98.67-1.87.7-2.43h.52c-.07.83-.39,1.82-.76,2.43h-.46Z"/>
    <path class="cls-5" d="M46.02,34.12v6.99h-.56v-6.99h.56Z"/>
    <path class="cls-5" d="M47.73,37.4c0-.43,0-.9-.01-1.29h.51c.01.17.03.6.02.88.21-.5.67-1,1.5-1,.7,0,1.25.35,1.45.99.25-.52.75-.99,1.63-.99.77,0,1.57.44,1.57,1.83v3.29h-.52v-3.23c0-.67-.24-1.39-1.16-1.39s-1.4.77-1.4,1.74v2.88h-.51v-3.22c0-.73-.22-1.4-1.13-1.4-.96,0-1.43.85-1.43,1.87v2.75h-.52v-3.71Z"/>
    <path class="cls-5" d="M56.03,37.4c0-.43,0-.9-.01-1.29h.51c.01.17.03.6.02.88.21-.5.67-1,1.5-1,.7,0,1.25.35,1.45.99.25-.52.75-.99,1.63-.99.77,0,1.57.44,1.57,1.83v3.29h-.52v-3.23c0-.67-.24-1.39-1.16-1.39s-1.4.77-1.4,1.74v2.88h-.51v-3.22c0-.73-.22-1.4-1.13-1.4-.96,0-1.43.85-1.43,1.87v2.75h-.52v-3.71Z"/>
    <path class="cls-5" d="M64.46,38.67c0,1.28.65,2.07,1.61,2.07s1.25-.52,1.43-.93h.53c-.21.66-.74,1.42-1.98,1.42-1.52,0-2.12-1.31-2.12-2.58,0-1.43.71-2.66,2.18-2.66,1.54,0,2.04,1.33,2.04,2.28,0,.14,0,.28-.01.41h-3.67ZM67.6,38.23c0-.98-.54-1.75-1.52-1.75-1.02,0-1.49.71-1.6,1.75h3.11Z"/>
    <path class="cls-5" d="M69.36,37.47c0-.83,0-1.19-.01-1.36h.51c.01.16.02.48.02,1.11.29-.75.93-1.2,1.74-1.23v.56c-1.04.07-1.74.78-1.74,1.97v2.59h-.52v-3.64Z"/>
    <path class="cls-5" d="M72.68,39.73c.17.64.63,1.03,1.41,1.03.88,0,1.24-.41,1.24-.96s-.24-.84-1.35-1.11c-1.3-.31-1.62-.71-1.62-1.37s.52-1.33,1.66-1.33,1.68.69,1.76,1.4h-.52c-.09-.42-.41-.93-1.26-.93s-1.11.42-1.11.82c0,.46.24.68,1.22.92,1.42.34,1.76.8,1.76,1.55,0,.91-.74,1.47-1.8,1.47-1.15,0-1.79-.6-1.93-1.5h.53Z"/>
    <path class="cls-5" d="M77.12,33.75h.52v.98h-.52v-.98ZM77.12,36.11h.52v5h-.52v-5Z"/>
    <path class="cls-5" d="M79.21,36.11c.8,2.28,1.36,3.84,1.55,4.47h0c.11-.38.67-1.87,1.63-4.47h.55l-1.89,5h-.62l-1.78-5h.55Z"/>
    <path class="cls-5" d="M84.05,38.67c0,1.28.65,2.07,1.61,2.07s1.25-.52,1.43-.93h.53c-.21.66-.74,1.42-1.98,1.42-1.52,0-2.12-1.31-2.12-2.58,0-1.43.71-2.66,2.18-2.66,1.54,0,2.04,1.33,2.04,2.28,0,.14,0,.28-.01.41h-3.67ZM87.19,38.23c0-.98-.54-1.75-1.52-1.75-1.02,0-1.49.71-1.6,1.75h3.11Z"/>
    <path class="cls-5" d="M88.35,42.25c.49-.98.67-1.87.7-2.43h.52c-.07.83-.39,1.82-.76,2.43h-.46Z"/>
    <path class="cls-5" d="M94.35,38.71l-.88,2.4h-.57l2.56-6.99h.67l2.67,6.99h-.61l-.9-2.4h-2.94ZM97.11,38.19c-.77-2.07-1.17-3.06-1.31-3.54h0c-.17.53-.62,1.77-1.24,3.54h2.56Z"/>
    <path class="cls-5" d="M103.5,39.65c0,.49,0,1.26,0,1.46h-.5c-.02-.13-.03-.46-.03-.86-.21.59-.72.98-1.61.98-.73,0-1.64-.29-1.64-1.81v-3.31h.51v3.19c0,.73.23,1.43,1.21,1.43,1.11,0,1.53-.62,1.53-2.04v-2.57h.52v3.54Z"/>
    <path class="cls-5" d="M108.98,40.76c0,1.6-.71,2.44-2.17,2.44-1.31,0-1.85-.74-1.97-1.49h.53c.18.68.74,1.01,1.46,1.01,1.29,0,1.65-.83,1.65-2.1v-.51c-.27.65-.76.99-1.67.99-1.17,0-2.07-.95-2.07-2.5,0-1.68.96-2.62,2.14-2.62,1.02,0,1.46.48,1.59.88,0-.29.02-.64.03-.75h.49c0,.19-.02.97-.02,1.45v3.21ZM105.29,38.59c0,1.18.62,2.04,1.58,2.04,1.24,0,1.62-.82,1.62-2.11s-.39-2.04-1.59-2.04-1.61.98-1.61,2.12Z"/>
    <path class="cls-5" d="M110.61,37.4c0-.43,0-.9,0-1.29h.51c.01.17.03.6.02.88.21-.5.67-1,1.5-1,.7,0,1.25.35,1.45.99.25-.52.75-.99,1.63-.99.77,0,1.57.44,1.57,1.83v3.29h-.52v-3.23c0-.67-.24-1.39-1.16-1.39s-1.4.77-1.4,1.74v2.88h-.51v-3.22c0-.73-.22-1.4-1.13-1.4-.96,0-1.43.85-1.43,1.87v2.75h-.52v-3.71Z"/>
    <path class="cls-5" d="M119.04,38.67c0,1.28.65,2.07,1.61,2.07s1.25-.52,1.43-.93h.53c-.21.66-.74,1.42-1.98,1.42-1.52,0-2.12-1.31-2.12-2.58,0-1.43.71-2.66,2.18-2.66,1.54,0,2.04,1.33,2.04,2.28,0,.14,0,.28-.01.41h-3.67ZM122.18,38.23c0-.98-.54-1.75-1.52-1.75-1.02,0-1.49.71-1.6,1.75h3.11Z"/>
    <path class="cls-5" d="M123.94,37.37c0-.44,0-.86-.01-1.26h.51c.02.16.03.8.02.94.22-.51.63-1.06,1.66-1.06.89,0,1.68.5,1.68,1.88v3.24h-.52v-3.16c0-.88-.37-1.46-1.23-1.46-1.18,0-1.58.98-1.58,2.06v2.56h-.52v-3.74Z"/>
    <path class="cls-5" d="M128.65,36.11h.93v-1.56h.52v1.56h1.19v.48h-1.19v3.23c0,.56.12.87.6.87.15,0,.36,0,.52-.06v.45c-.17.07-.42.09-.63.09-.65,0-1.01-.32-1.01-1.13v-3.46h-.93v-.48Z"/>
    <path class="cls-5" d="M132.38,38.67c0,1.28.65,2.07,1.61,2.07s1.25-.52,1.43-.93h.53c-.21.66-.74,1.42-1.98,1.42-1.52,0-2.12-1.31-2.12-2.58,0-1.43.71-2.66,2.18-2.66,1.54,0,2.04,1.33,2.04,2.28,0,.14,0,.28-.01.41h-3.67ZM135.52,38.23c0-.98-.54-1.75-1.52-1.75-1.02,0-1.49.71-1.6,1.75h3.11Z"/>
    <path class="cls-5" d="M141.21,33.75v5.93c0,.48,0,.94,0,1.44h-.5c-.02-.12-.03-.59-.03-.83-.25.61-.81.95-1.67.95-1.3,0-2.08-1.06-2.08-2.56s.85-2.68,2.21-2.68c.99,0,1.39.43,1.54.74v-2.99h.52ZM137.48,38.65c0,1.36.7,2.1,1.56,2.1,1.31,0,1.67-.91,1.67-2.25s-.31-2.02-1.58-2.02c-.98,0-1.65.79-1.65,2.18Z"/>
    <path class="cls-5" d="M40.28,48.62l-1.74,2.69c-.85,1.3-1.46,1.9-2.58,1.9s-1.82-.91-1.82-1.78.4-1.5,1.87-2.3c1.01-.65,1.4-.93,1.4-1.57,0-.55-.35-1.07-1.01-1.07-.62,0-1.06.39-1.06,1.11,0,.45.31.87.91,1.43l4.14,4.08h-.77l-3.78-3.72c-.64-.62-1.02-1.08-1.02-1.78,0-.8.53-1.58,1.61-1.58.91,0,1.53.68,1.53,1.54,0,.68-.38,1.13-1.61,1.88-1.4.79-1.64,1.28-1.64,1.94,0,.71.61,1.32,1.26,1.32.81,0,1.34-.28,2.24-1.71l1.48-2.37h.6Z"/>
    <path class="cls-5" d="M44.37,46.12h2.45c1.35,0,2.06.71,2.06,1.72,0,.83-.5,1.37-1.08,1.53.5.14,1.32.63,1.32,1.73,0,1.39-1.05,2.02-2.27,2.02h-2.49v-6.99ZM46.65,49.12c1.2,0,1.65-.45,1.65-1.25,0-.69-.48-1.24-1.45-1.24h-1.93v2.49h1.72ZM44.92,52.6h1.96c.92,0,1.68-.46,1.68-1.48,0-.88-.56-1.49-1.96-1.49h-1.67v2.96Z"/>
    <path class="cls-5" d="M50.49,45.74h.52v.98h-.52v-.98ZM50.49,48.11h.52v5h-.52v-5Z"/>
    <path class="cls-5" d="M52.64,49.37c0-.44,0-.86,0-1.26h.51c.02.16.03.8.02.94.22-.51.63-1.06,1.66-1.06.89,0,1.68.5,1.68,1.88v3.24h-.52v-3.16c0-.88-.37-1.46-1.23-1.46-1.18,0-1.58.98-1.58,2.06v2.56h-.52v-3.74Z"/>
    <path class="cls-5" d="M61.52,52.15c0,.44.04.8.07.96h-.5c-.04-.12-.07-.34-.09-.76-.17.37-.61.88-1.64.88-1.16,0-1.66-.75-1.66-1.5,0-1.1.85-1.6,2.35-1.6h.94v-.51c0-.5-.15-1.16-1.28-1.16-1,0-1.15.52-1.26.93h-.52c.06-.56.41-1.41,1.79-1.41,1.15,0,1.79.48,1.79,1.58v2.58ZM61.01,50.57h-.97c-1.1,0-1.79.29-1.79,1.14,0,.62.44,1.05,1.14,1.05,1.42,0,1.62-.94,1.62-2.01v-.18Z"/>
    <path class="cls-5" d="M66.86,51.65c0,.49,0,1.26.01,1.46h-.5c-.02-.13-.03-.46-.03-.86-.21.59-.72.98-1.6.98-.73,0-1.64-.29-1.64-1.81v-3.31h.51v3.19c0,.73.23,1.43,1.21,1.43,1.11,0,1.53-.62,1.53-2.04v-2.57h.52v3.54Z"/>
    <path class="cls-5" d="M68.49,49.47c0-.83,0-1.19-.01-1.36h.51c.01.16.02.48.02,1.11.29-.75.93-1.2,1.74-1.23v.56c-1.04.07-1.74.78-1.74,1.97v2.59h-.52v-3.64Z"/>
    <path class="cls-5" d="M75.03,52.15c0,.44.04.8.07.96h-.5c-.04-.12-.07-.34-.09-.76-.17.37-.61.88-1.64.88-1.16,0-1.66-.75-1.66-1.5,0-1.1.85-1.6,2.35-1.6h.94v-.51c0-.5-.15-1.16-1.28-1.16-1,0-1.15.52-1.26.93h-.52c.06-.56.41-1.41,1.79-1.41,1.15,0,1.79.48,1.79,1.58v2.58ZM74.52,50.57h-.97c-1.1,0-1.79.29-1.79,1.14,0,.62.44,1.05,1.14,1.05,1.42,0,1.62-.94,1.62-2.01v-.18Z"/>
    <path class="cls-5" d="M76.67,53.11v-7.36h.52v7.36h-.52Z"/>
    <path class="cls-5" d="M82.32,50.71l-.88,2.4h-.57l2.56-6.99h.67l2.67,6.99h-.61l-.9-2.4h-2.94ZM85.07,50.19c-.77-2.07-1.17-3.06-1.31-3.54h0c-.17.53-.62,1.77-1.24,3.54h2.56Z"/>
    <path class="cls-5" d="M91.47,51.65c0,.49,0,1.26,0,1.46h-.5c-.02-.13-.03-.46-.03-.86-.21.59-.72.98-1.61.98-.73,0-1.64-.29-1.64-1.81v-3.31h.51v3.19c0,.73.23,1.43,1.21,1.43,1.11,0,1.53-.62,1.53-2.04v-2.57h.52v3.54Z"/>
    <path class="cls-5" d="M96.98,45.74v5.93c0,.48,0,.94,0,1.44h-.5c-.02-.12-.03-.59-.03-.83-.25.61-.81.95-1.67.95-1.3,0-2.08-1.06-2.08-2.56s.85-2.68,2.21-2.68c.99,0,1.39.43,1.54.74v-2.99h.52ZM93.26,50.65c0,1.36.7,2.1,1.56,2.1,1.31,0,1.67-.91,1.67-2.25s-.31-2.02-1.58-2.02c-.98,0-1.65.79-1.65,2.18Z"/>
    <path class="cls-5" d="M98.61,45.74h.52v.98h-.52v-.98ZM98.61,48.11h.52v5h-.52v-5Z"/>
    <path class="cls-5" d="M104.83,50.6c0,1.39-.77,2.63-2.27,2.63-1.35,0-2.2-1.11-2.2-2.62s.79-2.62,2.25-2.62c1.33,0,2.21,1.04,2.21,2.61ZM100.92,50.61c0,1.19.63,2.14,1.69,2.14s1.68-.88,1.68-2.14c0-1.18-.59-2.14-1.7-2.14s-1.67.94-1.67,2.14Z"/>
    <path class="cls-5" d="M108.82,46.12h.56v6.48h3.75l-.1.52h-4.21v-6.99Z"/>
    <path class="cls-5" d="M117.63,52.15c0,.44.04.8.07.96h-.5c-.04-.12-.07-.34-.09-.76-.17.37-.61.88-1.64.88-1.16,0-1.66-.75-1.66-1.5,0-1.1.85-1.6,2.35-1.6h.94v-.51c0-.5-.15-1.16-1.28-1.16-1,0-1.15.52-1.26.93h-.52c.06-.56.4-1.41,1.79-1.41,1.14,0,1.79.48,1.79,1.58v2.58ZM117.12,50.57h-.97c-1.1,0-1.79.29-1.79,1.14,0,.62.44,1.05,1.14,1.05,1.42,0,1.62-.94,1.62-2.01v-.18Z"/>
    <path class="cls-5" d="M119.27,45.74h.52v3.2c.24-.5.73-.95,1.7-.95,1.18,0,2.05.97,2.05,2.51s-.78,2.73-2.18,2.73c-.84,0-1.31-.34-1.57-.9,0,.32,0,.64-.02.78h-.51c0-.57,0-1.14,0-1.71v-5.66ZM123,50.51c0-1.24-.61-2.04-1.56-2.04-1.24,0-1.68.84-1.68,2.15,0,1.17.39,2.13,1.62,2.13,1,0,1.62-.84,1.62-2.24Z"/>
  </g>
</svg>