<?xml version="1.0" encoding="UTF-8"?>
<svg id="Layer_1" data-name="Layer 1" xmlns="http://www.w3.org/2000/svg" viewBox="0 0 154.15 27.62">
  <defs>
    <style>
      .cls-1 {
        fill: #47a046;
      }

      .cls-2 {
        fill: #46a046;
        stroke: #46a046;
      }

      .cls-2, .cls-3, .cls-4 {
        stroke-miterlimit: 10;
      }

      .cls-3 {
        fill: #45a047;
        stroke: #45a047;
      }

      .cls-4 {
        fill: #232333;
        stroke: #232333;
      }
    </style>
  </defs>
  <path class="cls-2" d="M33.5.56C18.34.56,5.17,10.29.73,24.77l-.06.18h1.35C6.35,11.12,18.97,1.84,33.5,1.84s27.37,9.81,31.52,23.28h1.34C62.16,10.94,49.02.56,33.5.56Z"/>
  <g>
    <rect class="cls-1" x="4.34" y="23.14" width="2" height="1.56"/>
    <rect class="cls-1" x="7.47" y="19.64" width="2" height="5.05"/>
    <rect class="cls-1" x="10.59" y="16.46" width="2" height="8.23"/>
    <rect class="cls-1" x="13.71" y="18.75" width="2" height="5.94"/>
    <rect class="cls-1" x="16.84" y="13.35" width="2" height="11.34"/>
    <rect class="cls-1" x="19.96" y="22.17" width="2" height="2.53"/>
    <rect class="cls-1" x="23.09" y="17.52" width="2" height="7.17"/>
    <rect class="cls-1" x="26.21" y="19.64" width="2" height="5.05"/>
    <rect class="cls-1" x="29.34" y="16.46" width="2" height="8.23"/>
    <rect class="cls-1" x="32.46" y="21.58" width="2" height="3.11"/>
    <rect class="cls-1" x="35.59" y="19.44" width="2" height="5.25"/>
    <rect class="cls-1" x="38.71" y="22.07" width="2" height="2.63"/>
    <rect class="cls-1" x="41.83" y="19.64" width="2" height="5.05"/>
    <rect class="cls-1" x="44.96" y="12.34" width="2" height="12.36"/>
    <rect class="cls-1" x="48.08" y="18.75" width="2" height="5.94"/>
    <rect class="cls-1" x="51.21" y="14.26" width="2" height="10.43"/>
    <rect class="cls-1" x="54.33" y="17.52" width="2" height="7.17"/>
    <rect class="cls-1" x="57.46" y="20.21" width="2" height="4.48"/>
    <rect class="cls-1" x="60.58" y="22.69" width="2" height="2"/>
  </g>
  <g>
    <path class="cls-4" d="M75.41,25.12l-6.38-17.29h1.48l3.32,9.02c.95,2.61,2.02,5.48,2.39,6.95h.05c.37-1.29,1.54-4.31,2.49-6.85l3.45-9.11h1.45l-6.62,17.29h-1.63Z"/>
    <path class="cls-4" d="M88.56,7.84v17.29h-1.38V7.84h1.38Z"/>
    <path class="cls-4" d="M95.83,19.19l-2.17,5.93h-1.4l6.3-17.29h1.64l6.57,17.29h-1.5l-2.22-5.93h-7.22ZM102.61,17.91c-1.9-5.1-2.88-7.57-3.22-8.74h-.02c-.42,1.32-1.52,4.37-3.05,8.74h6.3Z"/>
    <path class="cls-4" d="M110.42,7.84h6.02c3.31,0,5.07,1.76,5.07,4.25,0,2.05-1.22,3.38-2.64,3.78,1.23.35,3.25,1.56,3.25,4.27,0,3.45-2.57,4.99-5.58,4.99h-6.13V7.84ZM116,15.26c2.95,0,4.07-1.1,4.07-3.09,0-1.69-1.17-3.06-3.56-3.06h-4.74v6.15h4.23ZM111.77,23.85h4.81c2.25,0,4.12-1.13,4.12-3.65,0-2.18-1.39-3.67-4.82-3.67h-4.11v7.33Z"/>
    <path class="cls-3" d="M128.36,19.19l-2.17,5.93h-1.4l6.3-17.29h1.64l6.57,17.29h-1.5l-2.22-5.93h-7.22ZM135.13,17.91c-1.9-5.1-2.88-7.57-3.22-8.74h-.02c-.42,1.32-1.52,4.37-3.05,8.74h6.3Z"/>
    <path class="cls-3" d="M142.94,7.84h1.38v16.01h9.22l-.25,1.27h-10.35V7.84Z"/>
  </g>
</svg>